<svg xmlns="http://www.w3.org/2000/svg" viewBox="0 0 64 64">
  <defs>
    <linearGradient id="g" x1="0%" y1="0%" x2="100%" y2="100%">
      <stop offset="0%" stop-color="#3af78c"/>
      <stop offset="100%" stop-color="#0fa26f"/>
    </linearGradient>
  </defs>
  <rect width="64" height="64" rx="18" fill="#07101b"/>
  <path fill="url(#g)" d="M33.8 15.1c-8.6 1.5-12.2 8.4-12.2 16.4 0 8.7 4.7 18.4 14.7 19.3 4.5.4 7.8-1.5 10-5.4 2.2-3.7 1.4-8.2-1.1-11.8-1.6-2.5-4.4-4.1-6.8-5.8-1.9-1.3-3.9-2.6-4.5-5-.8-3.3 1.5-5.8 4.9-6.2 2.8-.3 4.9.7 7.3 1.9 1.1.6 2.2 1.2 3.5 1.3 1.2.1 2.1-.5 2.3-1.8.2-1.5-1.2-2.6-2.5-3.1-3.1-1.1-6.2-1.6-9.5-1.2z"/>
  <path fill="#fff" d="M21.5 24.8c1.1-2.7 3.7-4.1 6.5-4.2 3.8-.1 7.2 1.9 9.4 4.7 1.4 1.7 2.9 3.5 4.3 5.3.6.8.5 1.7-.3 2.3-.8.6-1.7.5-2.4-.2-1.5-1.8-2.9-3.6-4.4-5.4-1.4-1.8-3.4-3.4-5.7-3.3-1.4.1-2.7.6-3.7 1.6-1.1 1.1-1.6 2.6-1.9 4.1-.2 1.3-.4 2.6-.6 3.9-.1.7-.8 1.2-1.6 1.1-.7-.1-1.2-.8-1.1-1.5.4-1.7.8-3.4 1.3-5.1z"/>
</svg>
